<svg xmlns="http://www.w3.org/2000/svg" viewBox="0 0 180 180" fill="none">
  <rect width="180" height="180" rx="40" fill="#0A0A0F"/>
  <defs>
    <linearGradient id="fire" x1="0%" y1="100%" x2="100%" y2="0%">
      <stop offset="0%" stop-color="#D00000"/>
      <stop offset="50%" stop-color="#E85D04"/>
      <stop offset="100%" stop-color="#F48C06"/>
    </linearGradient>
  </defs>
  <path d="M90 22c0 0-36 39-36 76c0 20 16 36 36 36s36-16 36-36c0-37-36-76-36-76z M90 124c-14 0-25-11-25-25c0-21 18-44 25-53c7 9 25 32 25 53c0 14-11 25-25 25z" fill="url(#fire)"/>
  <path d="M90 56c0 0-17 20-17 37c0 9 8 17 17 17s17-8 17-17c0-17-17-37-17-37z" fill="url(#fire)" opacity="0.7"/>
</svg>
