<svg xmlns="http://www.w3.org/2000/svg" viewBox="0 0 32 32" fill="none">
  <rect width="32" height="32" rx="6" fill="#0A0A0F"/>
  <defs>
    <linearGradient id="fire" x1="0%" y1="100%" x2="100%" y2="0%">
      <stop offset="0%" stop-color="#D00000"/>
      <stop offset="50%" stop-color="#E85D04"/>
      <stop offset="100%" stop-color="#F48C06"/>
    </linearGradient>
  </defs>
  <path d="M16 4c0 0-6.5 7-6.5 13.5c0 3.59 2.91 6.5 6.5 6.5s6.5-2.91 6.5-6.5C22.5 11 16 4 16 4z M16 22c-2.49 0-4.5-2.01-4.5-4.5c0-3.67 3.16-7.74 4.5-9.44c1.34 1.7 4.5 5.77 4.5 9.44c0 2.49-2.01 4.5-4.5 4.5z" fill="url(#fire)"/>
  <path d="M16 10c0 0-3 3.5-3 6.5c0 1.66 1.34 3 3 3s3-1.34 3-3c0-3-3-6.5-3-6.5z" fill="url(#fire)" opacity="0.7"/>
</svg>
